<svg id="SVG" xmlns="http://www.w3.org/2000/svg" width="100%" height="100%" xmlns:xlink="http://www.w3.org/1999/xlink" onload="startup()" viewBox="0 0 10000 10000" preserveAspectRatio="xMinYMin meet">
  <rect x="0" y="0" width="10000" height="10000"  fill="#000000"/>
  <polyline points="4840,2738 2927,3469 4999,561 4832,1232 4337,2777 1217,5983 3989,6115 1169,9682 5595,7478 6046,6903 313,4318 3577,5646 9298,3835 883,8105 4059,1179 9656,7875 8686,6891 3480,152 4129,5414 7737,6338 5197,9046 2317,3656 3966,9498 7281,6287 1532,4361 1209,6933 3718,4079 114,7307 2048,3431 5748,2887 4802,7382 3799,7067 3604,7014 615,8741 8442,7805 3339,3506 3933,37 7435,3629 1281,1075 5703,8815 3864,6635 1419,1488 9379,5681 3519,9874 1522,9747 2449,3234 8884,263 7586,3343 3965,3544 5835,5637 5396,9208 9858,9401 1316,4090 2186,3289 9775,4748 1048,4626 4845,9166 9003,8370 421,15 4633,9929 9471,968 9890,7141 9109,4379 14,2964 4123,8883 9562,7529 3475,1532 3331,3736 2734,5284 5760,9084 905,7745 2422,62 3027,692 5693,935 9628,3314 4871,4973 979,8542 9888,4094 3786,330 4455,3207 8746,6502 5778,5520 1105,5681 1758,8690 8244,8436 4671,8809 1066,1523 4651,9376 8562,9378 1879,8975 8726,966 5963,9792 1462,3314 6185,830 8409,2189 2387,7275 4715,6422 260,574 8592,6365 7947,6289 6730,4965 3170,6145 6440,9925 5290,2050 4703,2656 8810,1691 8009,1414 439,130 2655,4031 9066,8308 2132,6589 3396,6582 9060,8907 3446,4554 1136,7256 2036,8931 9555,536 9720,3593 9307,8386 9476,4515 51,1516 3573,8613 5889,1589 8653,581 7210,8158 6598,5394 949,5766 4106,9798 3358,4660 9962,8933 2862,3896 2415,4549 1421,1993 1137,181 9451,3282 " fill="none" stroke="#a3917b" stroke-width="4" opacity="0.6" transform="rotate(9.72972972972973 5000 5000)"/>
  <polyline points="4840,2738 2927,3469 4999,561 4832,1232 4337,2777 1217,5983 3989,6115 1169,9682 5595,7478 6046,6903 313,4318 3577,5646 9298,3835 883,8105 4059,1179 9656,7875 8686,6891 3480,152 4129,5414 7737,6338 5197,9046 2317,3656 3966,9498 7281,6287 1532,4361 1209,6933 3718,4079 114,7307 2048,3431 5748,2887 4802,7382 3799,7067 3604,7014 615,8741 8442,7805 3339,3506 3933,37 7435,3629 1281,1075 5703,8815 3864,6635 1419,1488 9379,5681 3519,9874 1522,9747 2449,3234 8884,263 7586,3343 3965,3544 5835,5637 5396,9208 9858,9401 1316,4090 2186,3289 9775,4748 1048,4626 4845,9166 9003,8370 421,15 4633,9929 9471,968 9890,7141 9109,4379 14,2964 4123,8883 9562,7529 3475,1532 3331,3736 2734,5284 5760,9084 905,7745 2422,62 3027,692 5693,935 9628,3314 4871,4973 979,8542 9888,4094 3786,330 4455,3207 8746,6502 5778,5520 1105,5681 1758,8690 8244,8436 4671,8809 1066,1523 4651,9376 8562,9378 1879,8975 8726,966 5963,9792 1462,3314 6185,830 8409,2189 2387,7275 4715,6422 260,574 8592,6365 7947,6289 6730,4965 3170,6145 6440,9925 5290,2050 4703,2656 8810,1691 8009,1414 439,130 2655,4031 9066,8308 2132,6589 3396,6582 9060,8907 3446,4554 1136,7256 2036,8931 9555,536 9720,3593 9307,8386 9476,4515 51,1516 3573,8613 5889,1589 8653,581 7210,8158 6598,5394 949,5766 4106,9798 3358,4660 9962,8933 2862,3896 2415,4549 1421,1993 1137,181 9451,3282 " fill="none" stroke="#a3917b" stroke-width="4" opacity="0.6" transform="rotate(19.45945945945946 5000 5000)"/>
  <polyline points="4840,2738 2927,3469 4999,561 4832,1232 4337,2777 1217,5983 3989,6115 1169,9682 5595,7478 6046,6903 313,4318 3577,5646 9298,3835 883,8105 4059,1179 9656,7875 8686,6891 3480,152 4129,5414 7737,6338 5197,9046 2317,3656 3966,9498 7281,6287 1532,4361 1209,6933 3718,4079 114,7307 2048,3431 5748,2887 4802,7382 3799,7067 3604,7014 615,8741 8442,7805 3339,3506 3933,37 7435,3629 1281,1075 5703,8815 3864,6635 1419,1488 9379,5681 3519,9874 1522,9747 2449,3234 8884,263 7586,3343 3965,3544 5835,5637 5396,9208 9858,9401 1316,4090 2186,3289 9775,4748 1048,4626 4845,9166 9003,8370 421,15 4633,9929 9471,968 9890,7141 9109,4379 14,2964 4123,8883 9562,7529 3475,1532 3331,3736 2734,5284 5760,9084 905,7745 2422,62 3027,692 5693,935 9628,3314 4871,4973 979,8542 9888,4094 3786,330 4455,3207 8746,6502 5778,5520 1105,5681 1758,8690 8244,8436 4671,8809 1066,1523 4651,9376 8562,9378 1879,8975 8726,966 5963,9792 1462,3314 6185,830 8409,2189 2387,7275 4715,6422 260,574 8592,6365 7947,6289 6730,4965 3170,6145 6440,9925 5290,2050 4703,2656 8810,1691 8009,1414 439,130 2655,4031 9066,8308 2132,6589 3396,6582 9060,8907 3446,4554 1136,7256 2036,8931 9555,536 9720,3593 9307,8386 9476,4515 51,1516 3573,8613 5889,1589 8653,581 7210,8158 6598,5394 949,5766 4106,9798 3358,4660 9962,8933 2862,3896 2415,4549 1421,1993 1137,181 9451,3282 " fill="none" stroke="#a3917b" stroke-width="4" opacity="0.6" transform="rotate(29.18918918918919 5000 5000)"/>
  <polyline points="4840,2738 2927,3469 4999,561 4832,1232 4337,2777 1217,5983 3989,6115 1169,9682 5595,7478 6046,6903 313,4318 3577,5646 9298,3835 883,8105 4059,1179 9656,7875 8686,6891 3480,152 4129,5414 7737,6338 5197,9046 2317,3656 3966,9498 7281,6287 1532,4361 1209,6933 3718,4079 114,7307 2048,3431 5748,2887 4802,7382 3799,7067 3604,7014 615,8741 8442,7805 3339,3506 3933,37 7435,3629 1281,1075 5703,8815 3864,6635 1419,1488 9379,5681 3519,9874 1522,9747 2449,3234 8884,263 7586,3343 3965,3544 5835,5637 5396,9208 9858,9401 1316,4090 2186,3289 9775,4748 1048,4626 4845,9166 9003,8370 421,15 4633,9929 9471,968 9890,7141 9109,4379 14,2964 4123,8883 9562,7529 3475,1532 3331,3736 2734,5284 5760,9084 905,7745 2422,62 3027,692 5693,935 9628,3314 4871,4973 979,8542 9888,4094 3786,330 4455,3207 8746,6502 5778,5520 1105,5681 1758,8690 8244,8436 4671,8809 1066,1523 4651,9376 8562,9378 1879,8975 8726,966 5963,9792 1462,3314 6185,830 8409,2189 2387,7275 4715,6422 260,574 8592,6365 7947,6289 6730,4965 3170,6145 6440,9925 5290,2050 4703,2656 8810,1691 8009,1414 439,130 2655,4031 9066,8308 2132,6589 3396,6582 9060,8907 3446,4554 1136,7256 2036,8931 9555,536 9720,3593 9307,8386 9476,4515 51,1516 3573,8613 5889,1589 8653,581 7210,8158 6598,5394 949,5766 4106,9798 3358,4660 9962,8933 2862,3896 2415,4549 1421,1993 1137,181 9451,3282 " fill="none" stroke="#a3917b" stroke-width="4" opacity="0.6" transform="rotate(38.91891891891892 5000 5000)"/>
  <polyline points="4840,2738 2927,3469 4999,561 4832,1232 4337,2777 1217,5983 3989,6115 1169,9682 5595,7478 6046,6903 313,4318 3577,5646 9298,3835 883,8105 4059,1179 9656,7875 8686,6891 3480,152 4129,5414 7737,6338 5197,9046 2317,3656 3966,9498 7281,6287 1532,4361 1209,6933 3718,4079 114,7307 2048,3431 5748,2887 4802,7382 3799,7067 3604,7014 615,8741 8442,7805 3339,3506 3933,37 7435,3629 1281,1075 5703,8815 3864,6635 1419,1488 9379,5681 3519,9874 1522,9747 2449,3234 8884,263 7586,3343 3965,3544 5835,5637 5396,9208 9858,9401 1316,4090 2186,3289 9775,4748 1048,4626 4845,9166 9003,8370 421,15 4633,9929 9471,968 9890,7141 9109,4379 14,2964 4123,8883 9562,7529 3475,1532 3331,3736 2734,5284 5760,9084 905,7745 2422,62 3027,692 5693,935 9628,3314 4871,4973 979,8542 9888,4094 3786,330 4455,3207 8746,6502 5778,5520 1105,5681 1758,8690 8244,8436 4671,8809 1066,1523 4651,9376 8562,9378 1879,8975 8726,966 5963,9792 1462,3314 6185,830 8409,2189 2387,7275 4715,6422 260,574 8592,6365 7947,6289 6730,4965 3170,6145 6440,9925 5290,2050 4703,2656 8810,1691 8009,1414 439,130 2655,4031 9066,8308 2132,6589 3396,6582 9060,8907 3446,4554 1136,7256 2036,8931 9555,536 9720,3593 9307,8386 9476,4515 51,1516 3573,8613 5889,1589 8653,581 7210,8158 6598,5394 949,5766 4106,9798 3358,4660 9962,8933 2862,3896 2415,4549 1421,1993 1137,181 9451,3282 " fill="none" stroke="#a3917b" stroke-width="4" opacity="0.6" transform="rotate(48.648648648648646 5000 5000)"/>
  <polyline points="4840,2738 2927,3469 4999,561 4832,1232 4337,2777 1217,5983 3989,6115 1169,9682 5595,7478 6046,6903 313,4318 3577,5646 9298,3835 883,8105 4059,1179 9656,7875 8686,6891 3480,152 4129,5414 7737,6338 5197,9046 2317,3656 3966,9498 7281,6287 1532,4361 1209,6933 3718,4079 114,7307 2048,3431 5748,2887 4802,7382 3799,7067 3604,7014 615,8741 8442,7805 3339,3506 3933,37 7435,3629 1281,1075 5703,8815 3864,6635 1419,1488 9379,5681 3519,9874 1522,9747 2449,3234 8884,263 7586,3343 3965,3544 5835,5637 5396,9208 9858,9401 1316,4090 2186,3289 9775,4748 1048,4626 4845,9166 9003,8370 421,15 4633,9929 9471,968 9890,7141 9109,4379 14,2964 4123,8883 9562,7529 3475,1532 3331,3736 2734,5284 5760,9084 905,7745 2422,62 3027,692 5693,935 9628,3314 4871,4973 979,8542 9888,4094 3786,330 4455,3207 8746,6502 5778,5520 1105,5681 1758,8690 8244,8436 4671,8809 1066,1523 4651,9376 8562,9378 1879,8975 8726,966 5963,9792 1462,3314 6185,830 8409,2189 2387,7275 4715,6422 260,574 8592,6365 7947,6289 6730,4965 3170,6145 6440,9925 5290,2050 4703,2656 8810,1691 8009,1414 439,130 2655,4031 9066,8308 2132,6589 3396,6582 9060,8907 3446,4554 1136,7256 2036,8931 9555,536 9720,3593 9307,8386 9476,4515 51,1516 3573,8613 5889,1589 8653,581 7210,8158 6598,5394 949,5766 4106,9798 3358,4660 9962,8933 2862,3896 2415,4549 1421,1993 1137,181 9451,3282 " fill="none" stroke="#a3917b" stroke-width="4" opacity="0.6" transform="rotate(58.37837837837838 5000 5000)"/>
  <polyline points="4840,2738 2927,3469 4999,561 4832,1232 4337,2777 1217,5983 3989,6115 1169,9682 5595,7478 6046,6903 313,4318 3577,5646 9298,3835 883,8105 4059,1179 9656,7875 8686,6891 3480,152 4129,5414 7737,6338 5197,9046 2317,3656 3966,9498 7281,6287 1532,4361 1209,6933 3718,4079 114,7307 2048,3431 5748,2887 4802,7382 3799,7067 3604,7014 615,8741 8442,7805 3339,3506 3933,37 7435,3629 1281,1075 5703,8815 3864,6635 1419,1488 9379,5681 3519,9874 1522,9747 2449,3234 8884,263 7586,3343 3965,3544 5835,5637 5396,9208 9858,9401 1316,4090 2186,3289 9775,4748 1048,4626 4845,9166 9003,8370 421,15 4633,9929 9471,968 9890,7141 9109,4379 14,2964 4123,8883 9562,7529 3475,1532 3331,3736 2734,5284 5760,9084 905,7745 2422,62 3027,692 5693,935 9628,3314 4871,4973 979,8542 9888,4094 3786,330 4455,3207 8746,6502 5778,5520 1105,5681 1758,8690 8244,8436 4671,8809 1066,1523 4651,9376 8562,9378 1879,8975 8726,966 5963,9792 1462,3314 6185,830 8409,2189 2387,7275 4715,6422 260,574 8592,6365 7947,6289 6730,4965 3170,6145 6440,9925 5290,2050 4703,2656 8810,1691 8009,1414 439,130 2655,4031 9066,8308 2132,6589 3396,6582 9060,8907 3446,4554 1136,7256 2036,8931 9555,536 9720,3593 9307,8386 9476,4515 51,1516 3573,8613 5889,1589 8653,581 7210,8158 6598,5394 949,5766 4106,9798 3358,4660 9962,8933 2862,3896 2415,4549 1421,1993 1137,181 9451,3282 " fill="none" stroke="#a3917b" stroke-width="4" opacity="0.6" transform="rotate(68.10810810810811 5000 5000)"/>
  <polyline points="4840,2738 2927,3469 4999,561 4832,1232 4337,2777 1217,5983 3989,6115 1169,9682 5595,7478 6046,6903 313,4318 3577,5646 9298,3835 883,8105 4059,1179 9656,7875 8686,6891 3480,152 4129,5414 7737,6338 5197,9046 2317,3656 3966,9498 7281,6287 1532,4361 1209,6933 3718,4079 114,7307 2048,3431 5748,2887 4802,7382 3799,7067 3604,7014 615,8741 8442,7805 3339,3506 3933,37 7435,3629 1281,1075 5703,8815 3864,6635 1419,1488 9379,5681 3519,9874 1522,9747 2449,3234 8884,263 7586,3343 3965,3544 5835,5637 5396,9208 9858,9401 1316,4090 2186,3289 9775,4748 1048,4626 4845,9166 9003,8370 421,15 4633,9929 9471,968 9890,7141 9109,4379 14,2964 4123,8883 9562,7529 3475,1532 3331,3736 2734,5284 5760,9084 905,7745 2422,62 3027,692 5693,935 9628,3314 4871,4973 979,8542 9888,4094 3786,330 4455,3207 8746,6502 5778,5520 1105,5681 1758,8690 8244,8436 4671,8809 1066,1523 4651,9376 8562,9378 1879,8975 8726,966 5963,9792 1462,3314 6185,830 8409,2189 2387,7275 4715,6422 260,574 8592,6365 7947,6289 6730,4965 3170,6145 6440,9925 5290,2050 4703,2656 8810,1691 8009,1414 439,130 2655,4031 9066,8308 2132,6589 3396,6582 9060,8907 3446,4554 1136,7256 2036,8931 9555,536 9720,3593 9307,8386 9476,4515 51,1516 3573,8613 5889,1589 8653,581 7210,8158 6598,5394 949,5766 4106,9798 3358,4660 9962,8933 2862,3896 2415,4549 1421,1993 1137,181 9451,3282 " fill="none" stroke="#a3917b" stroke-width="4" opacity="0.6" transform="rotate(77.83783783783784 5000 5000)"/>
  <polyline points="4840,2738 2927,3469 4999,561 4832,1232 4337,2777 1217,5983 3989,6115 1169,9682 5595,7478 6046,6903 313,4318 3577,5646 9298,3835 883,8105 4059,1179 9656,7875 8686,6891 3480,152 4129,5414 7737,6338 5197,9046 2317,3656 3966,9498 7281,6287 1532,4361 1209,6933 3718,4079 114,7307 2048,3431 5748,2887 4802,7382 3799,7067 3604,7014 615,8741 8442,7805 3339,3506 3933,37 7435,3629 1281,1075 5703,8815 3864,6635 1419,1488 9379,5681 3519,9874 1522,9747 2449,3234 8884,263 7586,3343 3965,3544 5835,5637 5396,9208 9858,9401 1316,4090 2186,3289 9775,4748 1048,4626 4845,9166 9003,8370 421,15 4633,9929 9471,968 9890,7141 9109,4379 14,2964 4123,8883 9562,7529 3475,1532 3331,3736 2734,5284 5760,9084 905,7745 2422,62 3027,692 5693,935 9628,3314 4871,4973 979,8542 9888,4094 3786,330 4455,3207 8746,6502 5778,5520 1105,5681 1758,8690 8244,8436 4671,8809 1066,1523 4651,9376 8562,9378 1879,8975 8726,966 5963,9792 1462,3314 6185,830 8409,2189 2387,7275 4715,6422 260,574 8592,6365 7947,6289 6730,4965 3170,6145 6440,9925 5290,2050 4703,2656 8810,1691 8009,1414 439,130 2655,4031 9066,8308 2132,6589 3396,6582 9060,8907 3446,4554 1136,7256 2036,8931 9555,536 9720,3593 9307,8386 9476,4515 51,1516 3573,8613 5889,1589 8653,581 7210,8158 6598,5394 949,5766 4106,9798 3358,4660 9962,8933 2862,3896 2415,4549 1421,1993 1137,181 9451,3282 " fill="none" stroke="#a3917b" stroke-width="4" opacity="0.6" transform="rotate(87.56756756756756 5000 5000)"/>
  <polyline points="4840,2738 2927,3469 4999,561 4832,1232 4337,2777 1217,5983 3989,6115 1169,9682 5595,7478 6046,6903 313,4318 3577,5646 9298,3835 883,8105 4059,1179 9656,7875 8686,6891 3480,152 4129,5414 7737,6338 5197,9046 2317,3656 3966,9498 7281,6287 1532,4361 1209,6933 3718,4079 114,7307 2048,3431 5748,2887 4802,7382 3799,7067 3604,7014 615,8741 8442,7805 3339,3506 3933,37 7435,3629 1281,1075 5703,8815 3864,6635 1419,1488 9379,5681 3519,9874 1522,9747 2449,3234 8884,263 7586,3343 3965,3544 5835,5637 5396,9208 9858,9401 1316,4090 2186,3289 9775,4748 1048,4626 4845,9166 9003,8370 421,15 4633,9929 9471,968 9890,7141 9109,4379 14,2964 4123,8883 9562,7529 3475,1532 3331,3736 2734,5284 5760,9084 905,7745 2422,62 3027,692 5693,935 9628,3314 4871,4973 979,8542 9888,4094 3786,330 4455,3207 8746,6502 5778,5520 1105,5681 1758,8690 8244,8436 4671,8809 1066,1523 4651,9376 8562,9378 1879,8975 8726,966 5963,9792 1462,3314 6185,830 8409,2189 2387,7275 4715,6422 260,574 8592,6365 7947,6289 6730,4965 3170,6145 6440,9925 5290,2050 4703,2656 8810,1691 8009,1414 439,130 2655,4031 9066,8308 2132,6589 3396,6582 9060,8907 3446,4554 1136,7256 2036,8931 9555,536 9720,3593 9307,8386 9476,4515 51,1516 3573,8613 5889,1589 8653,581 7210,8158 6598,5394 949,5766 4106,9798 3358,4660 9962,8933 2862,3896 2415,4549 1421,1993 1137,181 9451,3282 " fill="none" stroke="#a3917b" stroke-width="4" opacity="0.6" transform="rotate(97.29729729729729 5000 5000)"/>
  <polyline points="4840,2738 2927,3469 4999,561 4832,1232 4337,2777 1217,5983 3989,6115 1169,9682 5595,7478 6046,6903 313,4318 3577,5646 9298,3835 883,8105 4059,1179 9656,7875 8686,6891 3480,152 4129,5414 7737,6338 5197,9046 2317,3656 3966,9498 7281,6287 1532,4361 1209,6933 3718,4079 114,7307 2048,3431 5748,2887 4802,7382 3799,7067 3604,7014 615,8741 8442,7805 3339,3506 3933,37 7435,3629 1281,1075 5703,8815 3864,6635 1419,1488 9379,5681 3519,9874 1522,9747 2449,3234 8884,263 7586,3343 3965,3544 5835,5637 5396,9208 9858,9401 1316,4090 2186,3289 9775,4748 1048,4626 4845,9166 9003,8370 421,15 4633,9929 9471,968 9890,7141 9109,4379 14,2964 4123,8883 9562,7529 3475,1532 3331,3736 2734,5284 5760,9084 905,7745 2422,62 3027,692 5693,935 9628,3314 4871,4973 979,8542 9888,4094 3786,330 4455,3207 8746,6502 5778,5520 1105,5681 1758,8690 8244,8436 4671,8809 1066,1523 4651,9376 8562,9378 1879,8975 8726,966 5963,9792 1462,3314 6185,830 8409,2189 2387,7275 4715,6422 260,574 8592,6365 7947,6289 6730,4965 3170,6145 6440,9925 5290,2050 4703,2656 8810,1691 8009,1414 439,130 2655,4031 9066,8308 2132,6589 3396,6582 9060,8907 3446,4554 1136,7256 2036,8931 9555,536 9720,3593 9307,8386 9476,4515 51,1516 3573,8613 5889,1589 8653,581 7210,8158 6598,5394 949,5766 4106,9798 3358,4660 9962,8933 2862,3896 2415,4549 1421,1993 1137,181 9451,3282 " fill="none" stroke="#a3917b" stroke-width="4" opacity="0.6" transform="rotate(107.02702702702703 5000 5000)"/>
  <polyline points="4840,2738 2927,3469 4999,561 4832,1232 4337,2777 1217,5983 3989,6115 1169,9682 5595,7478 6046,6903 313,4318 3577,5646 9298,3835 883,8105 4059,1179 9656,7875 8686,6891 3480,152 4129,5414 7737,6338 5197,9046 2317,3656 3966,9498 7281,6287 1532,4361 1209,6933 3718,4079 114,7307 2048,3431 5748,2887 4802,7382 3799,7067 3604,7014 615,8741 8442,7805 3339,3506 3933,37 7435,3629 1281,1075 5703,8815 3864,6635 1419,1488 9379,5681 3519,9874 1522,9747 2449,3234 8884,263 7586,3343 3965,3544 5835,5637 5396,9208 9858,9401 1316,4090 2186,3289 9775,4748 1048,4626 4845,9166 9003,8370 421,15 4633,9929 9471,968 9890,7141 9109,4379 14,2964 4123,8883 9562,7529 3475,1532 3331,3736 2734,5284 5760,9084 905,7745 2422,62 3027,692 5693,935 9628,3314 4871,4973 979,8542 9888,4094 3786,330 4455,3207 8746,6502 5778,5520 1105,5681 1758,8690 8244,8436 4671,8809 1066,1523 4651,9376 8562,9378 1879,8975 8726,966 5963,9792 1462,3314 6185,830 8409,2189 2387,7275 4715,6422 260,574 8592,6365 7947,6289 6730,4965 3170,6145 6440,9925 5290,2050 4703,2656 8810,1691 8009,1414 439,130 2655,4031 9066,8308 2132,6589 3396,6582 9060,8907 3446,4554 1136,7256 2036,8931 9555,536 9720,3593 9307,8386 9476,4515 51,1516 3573,8613 5889,1589 8653,581 7210,8158 6598,5394 949,5766 4106,9798 3358,4660 9962,8933 2862,3896 2415,4549 1421,1993 1137,181 9451,3282 " fill="none" stroke="#a3917b" stroke-width="4" opacity="0.6" transform="rotate(116.75675675675676 5000 5000)"/>
  <polyline points="4840,2738 2927,3469 4999,561 4832,1232 4337,2777 1217,5983 3989,6115 1169,9682 5595,7478 6046,6903 313,4318 3577,5646 9298,3835 883,8105 4059,1179 9656,7875 8686,6891 3480,152 4129,5414 7737,6338 5197,9046 2317,3656 3966,9498 7281,6287 1532,4361 1209,6933 3718,4079 114,7307 2048,3431 5748,2887 4802,7382 3799,7067 3604,7014 615,8741 8442,7805 3339,3506 3933,37 7435,3629 1281,1075 5703,8815 3864,6635 1419,1488 9379,5681 3519,9874 1522,9747 2449,3234 8884,263 7586,3343 3965,3544 5835,5637 5396,9208 9858,9401 1316,4090 2186,3289 9775,4748 1048,4626 4845,9166 9003,8370 421,15 4633,9929 9471,968 9890,7141 9109,4379 14,2964 4123,8883 9562,7529 3475,1532 3331,3736 2734,5284 5760,9084 905,7745 2422,62 3027,692 5693,935 9628,3314 4871,4973 979,8542 9888,4094 3786,330 4455,3207 8746,6502 5778,5520 1105,5681 1758,8690 8244,8436 4671,8809 1066,1523 4651,9376 8562,9378 1879,8975 8726,966 5963,9792 1462,3314 6185,830 8409,2189 2387,7275 4715,6422 260,574 8592,6365 7947,6289 6730,4965 3170,6145 6440,9925 5290,2050 4703,2656 8810,1691 8009,1414 439,130 2655,4031 9066,8308 2132,6589 3396,6582 9060,8907 3446,4554 1136,7256 2036,8931 9555,536 9720,3593 9307,8386 9476,4515 51,1516 3573,8613 5889,1589 8653,581 7210,8158 6598,5394 949,5766 4106,9798 3358,4660 9962,8933 2862,3896 2415,4549 1421,1993 1137,181 9451,3282 " fill="none" stroke="#a3917b" stroke-width="4" opacity="0.6" transform="rotate(126.48648648648648 5000 5000)"/>
  <polyline points="4840,2738 2927,3469 4999,561 4832,1232 4337,2777 1217,5983 3989,6115 1169,9682 5595,7478 6046,6903 313,4318 3577,5646 9298,3835 883,8105 4059,1179 9656,7875 8686,6891 3480,152 4129,5414 7737,6338 5197,9046 2317,3656 3966,9498 7281,6287 1532,4361 1209,6933 3718,4079 114,7307 2048,3431 5748,2887 4802,7382 3799,7067 3604,7014 615,8741 8442,7805 3339,3506 3933,37 7435,3629 1281,1075 5703,8815 3864,6635 1419,1488 9379,5681 3519,9874 1522,9747 2449,3234 8884,263 7586,3343 3965,3544 5835,5637 5396,9208 9858,9401 1316,4090 2186,3289 9775,4748 1048,4626 4845,9166 9003,8370 421,15 4633,9929 9471,968 9890,7141 9109,4379 14,2964 4123,8883 9562,7529 3475,1532 3331,3736 2734,5284 5760,9084 905,7745 2422,62 3027,692 5693,935 9628,3314 4871,4973 979,8542 9888,4094 3786,330 4455,3207 8746,6502 5778,5520 1105,5681 1758,8690 8244,8436 4671,8809 1066,1523 4651,9376 8562,9378 1879,8975 8726,966 5963,9792 1462,3314 6185,830 8409,2189 2387,7275 4715,6422 260,574 8592,6365 7947,6289 6730,4965 3170,6145 6440,9925 5290,2050 4703,2656 8810,1691 8009,1414 439,130 2655,4031 9066,8308 2132,6589 3396,6582 9060,8907 3446,4554 1136,7256 2036,8931 9555,536 9720,3593 9307,8386 9476,4515 51,1516 3573,8613 5889,1589 8653,581 7210,8158 6598,5394 949,5766 4106,9798 3358,4660 9962,8933 2862,3896 2415,4549 1421,1993 1137,181 9451,3282 " fill="none" stroke="#a3917b" stroke-width="4" opacity="0.6" transform="rotate(136.21621621621622 5000 5000)"/>
  <polyline points="4840,2738 2927,3469 4999,561 4832,1232 4337,2777 1217,5983 3989,6115 1169,9682 5595,7478 6046,6903 313,4318 3577,5646 9298,3835 883,8105 4059,1179 9656,7875 8686,6891 3480,152 4129,5414 7737,6338 5197,9046 2317,3656 3966,9498 7281,6287 1532,4361 1209,6933 3718,4079 114,7307 2048,3431 5748,2887 4802,7382 3799,7067 3604,7014 615,8741 8442,7805 3339,3506 3933,37 7435,3629 1281,1075 5703,8815 3864,6635 1419,1488 9379,5681 3519,9874 1522,9747 2449,3234 8884,263 7586,3343 3965,3544 5835,5637 5396,9208 9858,9401 1316,4090 2186,3289 9775,4748 1048,4626 4845,9166 9003,8370 421,15 4633,9929 9471,968 9890,7141 9109,4379 14,2964 4123,8883 9562,7529 3475,1532 3331,3736 2734,5284 5760,9084 905,7745 2422,62 3027,692 5693,935 9628,3314 4871,4973 979,8542 9888,4094 3786,330 4455,3207 8746,6502 5778,5520 1105,5681 1758,8690 8244,8436 4671,8809 1066,1523 4651,9376 8562,9378 1879,8975 8726,966 5963,9792 1462,3314 6185,830 8409,2189 2387,7275 4715,6422 260,574 8592,6365 7947,6289 6730,4965 3170,6145 6440,9925 5290,2050 4703,2656 8810,1691 8009,1414 439,130 2655,4031 9066,8308 2132,6589 3396,6582 9060,8907 3446,4554 1136,7256 2036,8931 9555,536 9720,3593 9307,8386 9476,4515 51,1516 3573,8613 5889,1589 8653,581 7210,8158 6598,5394 949,5766 4106,9798 3358,4660 9962,8933 2862,3896 2415,4549 1421,1993 1137,181 9451,3282 " fill="none" stroke="#a3917b" stroke-width="4" opacity="0.6" transform="rotate(145.94594594594594 5000 5000)"/>
  <polyline points="4840,2738 2927,3469 4999,561 4832,1232 4337,2777 1217,5983 3989,6115 1169,9682 5595,7478 6046,6903 313,4318 3577,5646 9298,3835 883,8105 4059,1179 9656,7875 8686,6891 3480,152 4129,5414 7737,6338 5197,9046 2317,3656 3966,9498 7281,6287 1532,4361 1209,6933 3718,4079 114,7307 2048,3431 5748,2887 4802,7382 3799,7067 3604,7014 615,8741 8442,7805 3339,3506 3933,37 7435,3629 1281,1075 5703,8815 3864,6635 1419,1488 9379,5681 3519,9874 1522,9747 2449,3234 8884,263 7586,3343 3965,3544 5835,5637 5396,9208 9858,9401 1316,4090 2186,3289 9775,4748 1048,4626 4845,9166 9003,8370 421,15 4633,9929 9471,968 9890,7141 9109,4379 14,2964 4123,8883 9562,7529 3475,1532 3331,3736 2734,5284 5760,9084 905,7745 2422,62 3027,692 5693,935 9628,3314 4871,4973 979,8542 9888,4094 3786,330 4455,3207 8746,6502 5778,5520 1105,5681 1758,8690 8244,8436 4671,8809 1066,1523 4651,9376 8562,9378 1879,8975 8726,966 5963,9792 1462,3314 6185,830 8409,2189 2387,7275 4715,6422 260,574 8592,6365 7947,6289 6730,4965 3170,6145 6440,9925 5290,2050 4703,2656 8810,1691 8009,1414 439,130 2655,4031 9066,8308 2132,6589 3396,6582 9060,8907 3446,4554 1136,7256 2036,8931 9555,536 9720,3593 9307,8386 9476,4515 51,1516 3573,8613 5889,1589 8653,581 7210,8158 6598,5394 949,5766 4106,9798 3358,4660 9962,8933 2862,3896 2415,4549 1421,1993 1137,181 9451,3282 " fill="none" stroke="#a3917b" stroke-width="4" opacity="0.6" transform="rotate(155.67567567567568 5000 5000)"/>
  <polyline points="4840,2738 2927,3469 4999,561 4832,1232 4337,2777 1217,5983 3989,6115 1169,9682 5595,7478 6046,6903 313,4318 3577,5646 9298,3835 883,8105 4059,1179 9656,7875 8686,6891 3480,152 4129,5414 7737,6338 5197,9046 2317,3656 3966,9498 7281,6287 1532,4361 1209,6933 3718,4079 114,7307 2048,3431 5748,2887 4802,7382 3799,7067 3604,7014 615,8741 8442,7805 3339,3506 3933,37 7435,3629 1281,1075 5703,8815 3864,6635 1419,1488 9379,5681 3519,9874 1522,9747 2449,3234 8884,263 7586,3343 3965,3544 5835,5637 5396,9208 9858,9401 1316,4090 2186,3289 9775,4748 1048,4626 4845,9166 9003,8370 421,15 4633,9929 9471,968 9890,7141 9109,4379 14,2964 4123,8883 9562,7529 3475,1532 3331,3736 2734,5284 5760,9084 905,7745 2422,62 3027,692 5693,935 9628,3314 4871,4973 979,8542 9888,4094 3786,330 4455,3207 8746,6502 5778,5520 1105,5681 1758,8690 8244,8436 4671,8809 1066,1523 4651,9376 8562,9378 1879,8975 8726,966 5963,9792 1462,3314 6185,830 8409,2189 2387,7275 4715,6422 260,574 8592,6365 7947,6289 6730,4965 3170,6145 6440,9925 5290,2050 4703,2656 8810,1691 8009,1414 439,130 2655,4031 9066,8308 2132,6589 3396,6582 9060,8907 3446,4554 1136,7256 2036,8931 9555,536 9720,3593 9307,8386 9476,4515 51,1516 3573,8613 5889,1589 8653,581 7210,8158 6598,5394 949,5766 4106,9798 3358,4660 9962,8933 2862,3896 2415,4549 1421,1993 1137,181 9451,3282 " fill="none" stroke="#a3917b" stroke-width="4" opacity="0.6" transform="rotate(165.40540540540542 5000 5000)"/>
  <polyline points="4840,2738 2927,3469 4999,561 4832,1232 4337,2777 1217,5983 3989,6115 1169,9682 5595,7478 6046,6903 313,4318 3577,5646 9298,3835 883,8105 4059,1179 9656,7875 8686,6891 3480,152 4129,5414 7737,6338 5197,9046 2317,3656 3966,9498 7281,6287 1532,4361 1209,6933 3718,4079 114,7307 2048,3431 5748,2887 4802,7382 3799,7067 3604,7014 615,8741 8442,7805 3339,3506 3933,37 7435,3629 1281,1075 5703,8815 3864,6635 1419,1488 9379,5681 3519,9874 1522,9747 2449,3234 8884,263 7586,3343 3965,3544 5835,5637 5396,9208 9858,9401 1316,4090 2186,3289 9775,4748 1048,4626 4845,9166 9003,8370 421,15 4633,9929 9471,968 9890,7141 9109,4379 14,2964 4123,8883 9562,7529 3475,1532 3331,3736 2734,5284 5760,9084 905,7745 2422,62 3027,692 5693,935 9628,3314 4871,4973 979,8542 9888,4094 3786,330 4455,3207 8746,6502 5778,5520 1105,5681 1758,8690 8244,8436 4671,8809 1066,1523 4651,9376 8562,9378 1879,8975 8726,966 5963,9792 1462,3314 6185,830 8409,2189 2387,7275 4715,6422 260,574 8592,6365 7947,6289 6730,4965 3170,6145 6440,9925 5290,2050 4703,2656 8810,1691 8009,1414 439,130 2655,4031 9066,8308 2132,6589 3396,6582 9060,8907 3446,4554 1136,7256 2036,8931 9555,536 9720,3593 9307,8386 9476,4515 51,1516 3573,8613 5889,1589 8653,581 7210,8158 6598,5394 949,5766 4106,9798 3358,4660 9962,8933 2862,3896 2415,4549 1421,1993 1137,181 9451,3282 " fill="none" stroke="#a3917b" stroke-width="4" opacity="0.6" transform="rotate(175.13513513513513 5000 5000)"/>
  <polyline points="4840,2738 2927,3469 4999,561 4832,1232 4337,2777 1217,5983 3989,6115 1169,9682 5595,7478 6046,6903 313,4318 3577,5646 9298,3835 883,8105 4059,1179 9656,7875 8686,6891 3480,152 4129,5414 7737,6338 5197,9046 2317,3656 3966,9498 7281,6287 1532,4361 1209,6933 3718,4079 114,7307 2048,3431 5748,2887 4802,7382 3799,7067 3604,7014 615,8741 8442,7805 3339,3506 3933,37 7435,3629 1281,1075 5703,8815 3864,6635 1419,1488 9379,5681 3519,9874 1522,9747 2449,3234 8884,263 7586,3343 3965,3544 5835,5637 5396,9208 9858,9401 1316,4090 2186,3289 9775,4748 1048,4626 4845,9166 9003,8370 421,15 4633,9929 9471,968 9890,7141 9109,4379 14,2964 4123,8883 9562,7529 3475,1532 3331,3736 2734,5284 5760,9084 905,7745 2422,62 3027,692 5693,935 9628,3314 4871,4973 979,8542 9888,4094 3786,330 4455,3207 8746,6502 5778,5520 1105,5681 1758,8690 8244,8436 4671,8809 1066,1523 4651,9376 8562,9378 1879,8975 8726,966 5963,9792 1462,3314 6185,830 8409,2189 2387,7275 4715,6422 260,574 8592,6365 7947,6289 6730,4965 3170,6145 6440,9925 5290,2050 4703,2656 8810,1691 8009,1414 439,130 2655,4031 9066,8308 2132,6589 3396,6582 9060,8907 3446,4554 1136,7256 2036,8931 9555,536 9720,3593 9307,8386 9476,4515 51,1516 3573,8613 5889,1589 8653,581 7210,8158 6598,5394 949,5766 4106,9798 3358,4660 9962,8933 2862,3896 2415,4549 1421,1993 1137,181 9451,3282 " fill="none" stroke="#a3917b" stroke-width="4" opacity="0.6" transform="rotate(184.86486486486487 5000 5000)"/>
  <polyline points="4840,2738 2927,3469 4999,561 4832,1232 4337,2777 1217,5983 3989,6115 1169,9682 5595,7478 6046,6903 313,4318 3577,5646 9298,3835 883,8105 4059,1179 9656,7875 8686,6891 3480,152 4129,5414 7737,6338 5197,9046 2317,3656 3966,9498 7281,6287 1532,4361 1209,6933 3718,4079 114,7307 2048,3431 5748,2887 4802,7382 3799,7067 3604,7014 615,8741 8442,7805 3339,3506 3933,37 7435,3629 1281,1075 5703,8815 3864,6635 1419,1488 9379,5681 3519,9874 1522,9747 2449,3234 8884,263 7586,3343 3965,3544 5835,5637 5396,9208 9858,9401 1316,4090 2186,3289 9775,4748 1048,4626 4845,9166 9003,8370 421,15 4633,9929 9471,968 9890,7141 9109,4379 14,2964 4123,8883 9562,7529 3475,1532 3331,3736 2734,5284 5760,9084 905,7745 2422,62 3027,692 5693,935 9628,3314 4871,4973 979,8542 9888,4094 3786,330 4455,3207 8746,6502 5778,5520 1105,5681 1758,8690 8244,8436 4671,8809 1066,1523 4651,9376 8562,9378 1879,8975 8726,966 5963,9792 1462,3314 6185,830 8409,2189 2387,7275 4715,6422 260,574 8592,6365 7947,6289 6730,4965 3170,6145 6440,9925 5290,2050 4703,2656 8810,1691 8009,1414 439,130 2655,4031 9066,8308 2132,6589 3396,6582 9060,8907 3446,4554 1136,7256 2036,8931 9555,536 9720,3593 9307,8386 9476,4515 51,1516 3573,8613 5889,1589 8653,581 7210,8158 6598,5394 949,5766 4106,9798 3358,4660 9962,8933 2862,3896 2415,4549 1421,1993 1137,181 9451,3282 " fill="none" stroke="#a3917b" stroke-width="4" opacity="0.6" transform="rotate(194.59459459459458 5000 5000)"/>
  <polyline points="4840,2738 2927,3469 4999,561 4832,1232 4337,2777 1217,5983 3989,6115 1169,9682 5595,7478 6046,6903 313,4318 3577,5646 9298,3835 883,8105 4059,1179 9656,7875 8686,6891 3480,152 4129,5414 7737,6338 5197,9046 2317,3656 3966,9498 7281,6287 1532,4361 1209,6933 3718,4079 114,7307 2048,3431 5748,2887 4802,7382 3799,7067 3604,7014 615,8741 8442,7805 3339,3506 3933,37 7435,3629 1281,1075 5703,8815 3864,6635 1419,1488 9379,5681 3519,9874 1522,9747 2449,3234 8884,263 7586,3343 3965,3544 5835,5637 5396,9208 9858,9401 1316,4090 2186,3289 9775,4748 1048,4626 4845,9166 9003,8370 421,15 4633,9929 9471,968 9890,7141 9109,4379 14,2964 4123,8883 9562,7529 3475,1532 3331,3736 2734,5284 5760,9084 905,7745 2422,62 3027,692 5693,935 9628,3314 4871,4973 979,8542 9888,4094 3786,330 4455,3207 8746,6502 5778,5520 1105,5681 1758,8690 8244,8436 4671,8809 1066,1523 4651,9376 8562,9378 1879,8975 8726,966 5963,9792 1462,3314 6185,830 8409,2189 2387,7275 4715,6422 260,574 8592,6365 7947,6289 6730,4965 3170,6145 6440,9925 5290,2050 4703,2656 8810,1691 8009,1414 439,130 2655,4031 9066,8308 2132,6589 3396,6582 9060,8907 3446,4554 1136,7256 2036,8931 9555,536 9720,3593 9307,8386 9476,4515 51,1516 3573,8613 5889,1589 8653,581 7210,8158 6598,5394 949,5766 4106,9798 3358,4660 9962,8933 2862,3896 2415,4549 1421,1993 1137,181 9451,3282 " fill="none" stroke="#a3917b" stroke-width="4" opacity="0.6" transform="rotate(204.32432432432432 5000 5000)"/>
  <polyline points="4840,2738 2927,3469 4999,561 4832,1232 4337,2777 1217,5983 3989,6115 1169,9682 5595,7478 6046,6903 313,4318 3577,5646 9298,3835 883,8105 4059,1179 9656,7875 8686,6891 3480,152 4129,5414 7737,6338 5197,9046 2317,3656 3966,9498 7281,6287 1532,4361 1209,6933 3718,4079 114,7307 2048,3431 5748,2887 4802,7382 3799,7067 3604,7014 615,8741 8442,7805 3339,3506 3933,37 7435,3629 1281,1075 5703,8815 3864,6635 1419,1488 9379,5681 3519,9874 1522,9747 2449,3234 8884,263 7586,3343 3965,3544 5835,5637 5396,9208 9858,9401 1316,4090 2186,3289 9775,4748 1048,4626 4845,9166 9003,8370 421,15 4633,9929 9471,968 9890,7141 9109,4379 14,2964 4123,8883 9562,7529 3475,1532 3331,3736 2734,5284 5760,9084 905,7745 2422,62 3027,692 5693,935 9628,3314 4871,4973 979,8542 9888,4094 3786,330 4455,3207 8746,6502 5778,5520 1105,5681 1758,8690 8244,8436 4671,8809 1066,1523 4651,9376 8562,9378 1879,8975 8726,966 5963,9792 1462,3314 6185,830 8409,2189 2387,7275 4715,6422 260,574 8592,6365 7947,6289 6730,4965 3170,6145 6440,9925 5290,2050 4703,2656 8810,1691 8009,1414 439,130 2655,4031 9066,8308 2132,6589 3396,6582 9060,8907 3446,4554 1136,7256 2036,8931 9555,536 9720,3593 9307,8386 9476,4515 51,1516 3573,8613 5889,1589 8653,581 7210,8158 6598,5394 949,5766 4106,9798 3358,4660 9962,8933 2862,3896 2415,4549 1421,1993 1137,181 9451,3282 " fill="none" stroke="#a3917b" stroke-width="4" opacity="0.6" transform="rotate(214.05405405405406 5000 5000)"/>
  <polyline points="4840,2738 2927,3469 4999,561 4832,1232 4337,2777 1217,5983 3989,6115 1169,9682 5595,7478 6046,6903 313,4318 3577,5646 9298,3835 883,8105 4059,1179 9656,7875 8686,6891 3480,152 4129,5414 7737,6338 5197,9046 2317,3656 3966,9498 7281,6287 1532,4361 1209,6933 3718,4079 114,7307 2048,3431 5748,2887 4802,7382 3799,7067 3604,7014 615,8741 8442,7805 3339,3506 3933,37 7435,3629 1281,1075 5703,8815 3864,6635 1419,1488 9379,5681 3519,9874 1522,9747 2449,3234 8884,263 7586,3343 3965,3544 5835,5637 5396,9208 9858,9401 1316,4090 2186,3289 9775,4748 1048,4626 4845,9166 9003,8370 421,15 4633,9929 9471,968 9890,7141 9109,4379 14,2964 4123,8883 9562,7529 3475,1532 3331,3736 2734,5284 5760,9084 905,7745 2422,62 3027,692 5693,935 9628,3314 4871,4973 979,8542 9888,4094 3786,330 4455,3207 8746,6502 5778,5520 1105,5681 1758,8690 8244,8436 4671,8809 1066,1523 4651,9376 8562,9378 1879,8975 8726,966 5963,9792 1462,3314 6185,830 8409,2189 2387,7275 4715,6422 260,574 8592,6365 7947,6289 6730,4965 3170,6145 6440,9925 5290,2050 4703,2656 8810,1691 8009,1414 439,130 2655,4031 9066,8308 2132,6589 3396,6582 9060,8907 3446,4554 1136,7256 2036,8931 9555,536 9720,3593 9307,8386 9476,4515 51,1516 3573,8613 5889,1589 8653,581 7210,8158 6598,5394 949,5766 4106,9798 3358,4660 9962,8933 2862,3896 2415,4549 1421,1993 1137,181 9451,3282 " fill="none" stroke="#a3917b" stroke-width="4" opacity="0.6" transform="rotate(223.78378378378378 5000 5000)"/>
  <polyline points="4840,2738 2927,3469 4999,561 4832,1232 4337,2777 1217,5983 3989,6115 1169,9682 5595,7478 6046,6903 313,4318 3577,5646 9298,3835 883,8105 4059,1179 9656,7875 8686,6891 3480,152 4129,5414 7737,6338 5197,9046 2317,3656 3966,9498 7281,6287 1532,4361 1209,6933 3718,4079 114,7307 2048,3431 5748,2887 4802,7382 3799,7067 3604,7014 615,8741 8442,7805 3339,3506 3933,37 7435,3629 1281,1075 5703,8815 3864,6635 1419,1488 9379,5681 3519,9874 1522,9747 2449,3234 8884,263 7586,3343 3965,3544 5835,5637 5396,9208 9858,9401 1316,4090 2186,3289 9775,4748 1048,4626 4845,9166 9003,8370 421,15 4633,9929 9471,968 9890,7141 9109,4379 14,2964 4123,8883 9562,7529 3475,1532 3331,3736 2734,5284 5760,9084 905,7745 2422,62 3027,692 5693,935 9628,3314 4871,4973 979,8542 9888,4094 3786,330 4455,3207 8746,6502 5778,5520 1105,5681 1758,8690 8244,8436 4671,8809 1066,1523 4651,9376 8562,9378 1879,8975 8726,966 5963,9792 1462,3314 6185,830 8409,2189 2387,7275 4715,6422 260,574 8592,6365 7947,6289 6730,4965 3170,6145 6440,9925 5290,2050 4703,2656 8810,1691 8009,1414 439,130 2655,4031 9066,8308 2132,6589 3396,6582 9060,8907 3446,4554 1136,7256 2036,8931 9555,536 9720,3593 9307,8386 9476,4515 51,1516 3573,8613 5889,1589 8653,581 7210,8158 6598,5394 949,5766 4106,9798 3358,4660 9962,8933 2862,3896 2415,4549 1421,1993 1137,181 9451,3282 " fill="none" stroke="#a3917b" stroke-width="4" opacity="0.6" transform="rotate(233.51351351351352 5000 5000)"/>
  <polyline points="4840,2738 2927,3469 4999,561 4832,1232 4337,2777 1217,5983 3989,6115 1169,9682 5595,7478 6046,6903 313,4318 3577,5646 9298,3835 883,8105 4059,1179 9656,7875 8686,6891 3480,152 4129,5414 7737,6338 5197,9046 2317,3656 3966,9498 7281,6287 1532,4361 1209,6933 3718,4079 114,7307 2048,3431 5748,2887 4802,7382 3799,7067 3604,7014 615,8741 8442,7805 3339,3506 3933,37 7435,3629 1281,1075 5703,8815 3864,6635 1419,1488 9379,5681 3519,9874 1522,9747 2449,3234 8884,263 7586,3343 3965,3544 5835,5637 5396,9208 9858,9401 1316,4090 2186,3289 9775,4748 1048,4626 4845,9166 9003,8370 421,15 4633,9929 9471,968 9890,7141 9109,4379 14,2964 4123,8883 9562,7529 3475,1532 3331,3736 2734,5284 5760,9084 905,7745 2422,62 3027,692 5693,935 9628,3314 4871,4973 979,8542 9888,4094 3786,330 4455,3207 8746,6502 5778,5520 1105,5681 1758,8690 8244,8436 4671,8809 1066,1523 4651,9376 8562,9378 1879,8975 8726,966 5963,9792 1462,3314 6185,830 8409,2189 2387,7275 4715,6422 260,574 8592,6365 7947,6289 6730,4965 3170,6145 6440,9925 5290,2050 4703,2656 8810,1691 8009,1414 439,130 2655,4031 9066,8308 2132,6589 3396,6582 9060,8907 3446,4554 1136,7256 2036,8931 9555,536 9720,3593 9307,8386 9476,4515 51,1516 3573,8613 5889,1589 8653,581 7210,8158 6598,5394 949,5766 4106,9798 3358,4660 9962,8933 2862,3896 2415,4549 1421,1993 1137,181 9451,3282 " fill="none" stroke="#a3917b" stroke-width="4" opacity="0.6" transform="rotate(243.24324324324326 5000 5000)"/>
  <polyline points="4840,2738 2927,3469 4999,561 4832,1232 4337,2777 1217,5983 3989,6115 1169,9682 5595,7478 6046,6903 313,4318 3577,5646 9298,3835 883,8105 4059,1179 9656,7875 8686,6891 3480,152 4129,5414 7737,6338 5197,9046 2317,3656 3966,9498 7281,6287 1532,4361 1209,6933 3718,4079 114,7307 2048,3431 5748,2887 4802,7382 3799,7067 3604,7014 615,8741 8442,7805 3339,3506 3933,37 7435,3629 1281,1075 5703,8815 3864,6635 1419,1488 9379,5681 3519,9874 1522,9747 2449,3234 8884,263 7586,3343 3965,3544 5835,5637 5396,9208 9858,9401 1316,4090 2186,3289 9775,4748 1048,4626 4845,9166 9003,8370 421,15 4633,9929 9471,968 9890,7141 9109,4379 14,2964 4123,8883 9562,7529 3475,1532 3331,3736 2734,5284 5760,9084 905,7745 2422,62 3027,692 5693,935 9628,3314 4871,4973 979,8542 9888,4094 3786,330 4455,3207 8746,6502 5778,5520 1105,5681 1758,8690 8244,8436 4671,8809 1066,1523 4651,9376 8562,9378 1879,8975 8726,966 5963,9792 1462,3314 6185,830 8409,2189 2387,7275 4715,6422 260,574 8592,6365 7947,6289 6730,4965 3170,6145 6440,9925 5290,2050 4703,2656 8810,1691 8009,1414 439,130 2655,4031 9066,8308 2132,6589 3396,6582 9060,8907 3446,4554 1136,7256 2036,8931 9555,536 9720,3593 9307,8386 9476,4515 51,1516 3573,8613 5889,1589 8653,581 7210,8158 6598,5394 949,5766 4106,9798 3358,4660 9962,8933 2862,3896 2415,4549 1421,1993 1137,181 9451,3282 " fill="none" stroke="#a3917b" stroke-width="4" opacity="0.6" transform="rotate(252.97297297297297 5000 5000)"/>
  <polyline points="4840,2738 2927,3469 4999,561 4832,1232 4337,2777 1217,5983 3989,6115 1169,9682 5595,7478 6046,6903 313,4318 3577,5646 9298,3835 883,8105 4059,1179 9656,7875 8686,6891 3480,152 4129,5414 7737,6338 5197,9046 2317,3656 3966,9498 7281,6287 1532,4361 1209,6933 3718,4079 114,7307 2048,3431 5748,2887 4802,7382 3799,7067 3604,7014 615,8741 8442,7805 3339,3506 3933,37 7435,3629 1281,1075 5703,8815 3864,6635 1419,1488 9379,5681 3519,9874 1522,9747 2449,3234 8884,263 7586,3343 3965,3544 5835,5637 5396,9208 9858,9401 1316,4090 2186,3289 9775,4748 1048,4626 4845,9166 9003,8370 421,15 4633,9929 9471,968 9890,7141 9109,4379 14,2964 4123,8883 9562,7529 3475,1532 3331,3736 2734,5284 5760,9084 905,7745 2422,62 3027,692 5693,935 9628,3314 4871,4973 979,8542 9888,4094 3786,330 4455,3207 8746,6502 5778,5520 1105,5681 1758,8690 8244,8436 4671,8809 1066,1523 4651,9376 8562,9378 1879,8975 8726,966 5963,9792 1462,3314 6185,830 8409,2189 2387,7275 4715,6422 260,574 8592,6365 7947,6289 6730,4965 3170,6145 6440,9925 5290,2050 4703,2656 8810,1691 8009,1414 439,130 2655,4031 9066,8308 2132,6589 3396,6582 9060,8907 3446,4554 1136,7256 2036,8931 9555,536 9720,3593 9307,8386 9476,4515 51,1516 3573,8613 5889,1589 8653,581 7210,8158 6598,5394 949,5766 4106,9798 3358,4660 9962,8933 2862,3896 2415,4549 1421,1993 1137,181 9451,3282 " fill="none" stroke="#a3917b" stroke-width="4" opacity="0.6" transform="rotate(262.7027027027027 5000 5000)"/>
  <polyline points="4840,2738 2927,3469 4999,561 4832,1232 4337,2777 1217,5983 3989,6115 1169,9682 5595,7478 6046,6903 313,4318 3577,5646 9298,3835 883,8105 4059,1179 9656,7875 8686,6891 3480,152 4129,5414 7737,6338 5197,9046 2317,3656 3966,9498 7281,6287 1532,4361 1209,6933 3718,4079 114,7307 2048,3431 5748,2887 4802,7382 3799,7067 3604,7014 615,8741 8442,7805 3339,3506 3933,37 7435,3629 1281,1075 5703,8815 3864,6635 1419,1488 9379,5681 3519,9874 1522,9747 2449,3234 8884,263 7586,3343 3965,3544 5835,5637 5396,9208 9858,9401 1316,4090 2186,3289 9775,4748 1048,4626 4845,9166 9003,8370 421,15 4633,9929 9471,968 9890,7141 9109,4379 14,2964 4123,8883 9562,7529 3475,1532 3331,3736 2734,5284 5760,9084 905,7745 2422,62 3027,692 5693,935 9628,3314 4871,4973 979,8542 9888,4094 3786,330 4455,3207 8746,6502 5778,5520 1105,5681 1758,8690 8244,8436 4671,8809 1066,1523 4651,9376 8562,9378 1879,8975 8726,966 5963,9792 1462,3314 6185,830 8409,2189 2387,7275 4715,6422 260,574 8592,6365 7947,6289 6730,4965 3170,6145 6440,9925 5290,2050 4703,2656 8810,1691 8009,1414 439,130 2655,4031 9066,8308 2132,6589 3396,6582 9060,8907 3446,4554 1136,7256 2036,8931 9555,536 9720,3593 9307,8386 9476,4515 51,1516 3573,8613 5889,1589 8653,581 7210,8158 6598,5394 949,5766 4106,9798 3358,4660 9962,8933 2862,3896 2415,4549 1421,1993 1137,181 9451,3282 " fill="none" stroke="#a3917b" stroke-width="4" opacity="0.6" transform="rotate(272.43243243243245 5000 5000)"/>
  <polyline points="4840,2738 2927,3469 4999,561 4832,1232 4337,2777 1217,5983 3989,6115 1169,9682 5595,7478 6046,6903 313,4318 3577,5646 9298,3835 883,8105 4059,1179 9656,7875 8686,6891 3480,152 4129,5414 7737,6338 5197,9046 2317,3656 3966,9498 7281,6287 1532,4361 1209,6933 3718,4079 114,7307 2048,3431 5748,2887 4802,7382 3799,7067 3604,7014 615,8741 8442,7805 3339,3506 3933,37 7435,3629 1281,1075 5703,8815 3864,6635 1419,1488 9379,5681 3519,9874 1522,9747 2449,3234 8884,263 7586,3343 3965,3544 5835,5637 5396,9208 9858,9401 1316,4090 2186,3289 9775,4748 1048,4626 4845,9166 9003,8370 421,15 4633,9929 9471,968 9890,7141 9109,4379 14,2964 4123,8883 9562,7529 3475,1532 3331,3736 2734,5284 5760,9084 905,7745 2422,62 3027,692 5693,935 9628,3314 4871,4973 979,8542 9888,4094 3786,330 4455,3207 8746,6502 5778,5520 1105,5681 1758,8690 8244,8436 4671,8809 1066,1523 4651,9376 8562,9378 1879,8975 8726,966 5963,9792 1462,3314 6185,830 8409,2189 2387,7275 4715,6422 260,574 8592,6365 7947,6289 6730,4965 3170,6145 6440,9925 5290,2050 4703,2656 8810,1691 8009,1414 439,130 2655,4031 9066,8308 2132,6589 3396,6582 9060,8907 3446,4554 1136,7256 2036,8931 9555,536 9720,3593 9307,8386 9476,4515 51,1516 3573,8613 5889,1589 8653,581 7210,8158 6598,5394 949,5766 4106,9798 3358,4660 9962,8933 2862,3896 2415,4549 1421,1993 1137,181 9451,3282 " fill="none" stroke="#a3917b" stroke-width="4" opacity="0.6" transform="rotate(282.1621621621622 5000 5000)"/>
  <polyline points="4840,2738 2927,3469 4999,561 4832,1232 4337,2777 1217,5983 3989,6115 1169,9682 5595,7478 6046,6903 313,4318 3577,5646 9298,3835 883,8105 4059,1179 9656,7875 8686,6891 3480,152 4129,5414 7737,6338 5197,9046 2317,3656 3966,9498 7281,6287 1532,4361 1209,6933 3718,4079 114,7307 2048,3431 5748,2887 4802,7382 3799,7067 3604,7014 615,8741 8442,7805 3339,3506 3933,37 7435,3629 1281,1075 5703,8815 3864,6635 1419,1488 9379,5681 3519,9874 1522,9747 2449,3234 8884,263 7586,3343 3965,3544 5835,5637 5396,9208 9858,9401 1316,4090 2186,3289 9775,4748 1048,4626 4845,9166 9003,8370 421,15 4633,9929 9471,968 9890,7141 9109,4379 14,2964 4123,8883 9562,7529 3475,1532 3331,3736 2734,5284 5760,9084 905,7745 2422,62 3027,692 5693,935 9628,3314 4871,4973 979,8542 9888,4094 3786,330 4455,3207 8746,6502 5778,5520 1105,5681 1758,8690 8244,8436 4671,8809 1066,1523 4651,9376 8562,9378 1879,8975 8726,966 5963,9792 1462,3314 6185,830 8409,2189 2387,7275 4715,6422 260,574 8592,6365 7947,6289 6730,4965 3170,6145 6440,9925 5290,2050 4703,2656 8810,1691 8009,1414 439,130 2655,4031 9066,8308 2132,6589 3396,6582 9060,8907 3446,4554 1136,7256 2036,8931 9555,536 9720,3593 9307,8386 9476,4515 51,1516 3573,8613 5889,1589 8653,581 7210,8158 6598,5394 949,5766 4106,9798 3358,4660 9962,8933 2862,3896 2415,4549 1421,1993 1137,181 9451,3282 " fill="none" stroke="#a3917b" stroke-width="4" opacity="0.6" transform="rotate(291.8918918918919 5000 5000)"/>
  <polyline points="4840,2738 2927,3469 4999,561 4832,1232 4337,2777 1217,5983 3989,6115 1169,9682 5595,7478 6046,6903 313,4318 3577,5646 9298,3835 883,8105 4059,1179 9656,7875 8686,6891 3480,152 4129,5414 7737,6338 5197,9046 2317,3656 3966,9498 7281,6287 1532,4361 1209,6933 3718,4079 114,7307 2048,3431 5748,2887 4802,7382 3799,7067 3604,7014 615,8741 8442,7805 3339,3506 3933,37 7435,3629 1281,1075 5703,8815 3864,6635 1419,1488 9379,5681 3519,9874 1522,9747 2449,3234 8884,263 7586,3343 3965,3544 5835,5637 5396,9208 9858,9401 1316,4090 2186,3289 9775,4748 1048,4626 4845,9166 9003,8370 421,15 4633,9929 9471,968 9890,7141 9109,4379 14,2964 4123,8883 9562,7529 3475,1532 3331,3736 2734,5284 5760,9084 905,7745 2422,62 3027,692 5693,935 9628,3314 4871,4973 979,8542 9888,4094 3786,330 4455,3207 8746,6502 5778,5520 1105,5681 1758,8690 8244,8436 4671,8809 1066,1523 4651,9376 8562,9378 1879,8975 8726,966 5963,9792 1462,3314 6185,830 8409,2189 2387,7275 4715,6422 260,574 8592,6365 7947,6289 6730,4965 3170,6145 6440,9925 5290,2050 4703,2656 8810,1691 8009,1414 439,130 2655,4031 9066,8308 2132,6589 3396,6582 9060,8907 3446,4554 1136,7256 2036,8931 9555,536 9720,3593 9307,8386 9476,4515 51,1516 3573,8613 5889,1589 8653,581 7210,8158 6598,5394 949,5766 4106,9798 3358,4660 9962,8933 2862,3896 2415,4549 1421,1993 1137,181 9451,3282 " fill="none" stroke="#a3917b" stroke-width="4" opacity="0.6" transform="rotate(301.6216216216216 5000 5000)"/>
  <polyline points="4840,2738 2927,3469 4999,561 4832,1232 4337,2777 1217,5983 3989,6115 1169,9682 5595,7478 6046,6903 313,4318 3577,5646 9298,3835 883,8105 4059,1179 9656,7875 8686,6891 3480,152 4129,5414 7737,6338 5197,9046 2317,3656 3966,9498 7281,6287 1532,4361 1209,6933 3718,4079 114,7307 2048,3431 5748,2887 4802,7382 3799,7067 3604,7014 615,8741 8442,7805 3339,3506 3933,37 7435,3629 1281,1075 5703,8815 3864,6635 1419,1488 9379,5681 3519,9874 1522,9747 2449,3234 8884,263 7586,3343 3965,3544 5835,5637 5396,9208 9858,9401 1316,4090 2186,3289 9775,4748 1048,4626 4845,9166 9003,8370 421,15 4633,9929 9471,968 9890,7141 9109,4379 14,2964 4123,8883 9562,7529 3475,1532 3331,3736 2734,5284 5760,9084 905,7745 2422,62 3027,692 5693,935 9628,3314 4871,4973 979,8542 9888,4094 3786,330 4455,3207 8746,6502 5778,5520 1105,5681 1758,8690 8244,8436 4671,8809 1066,1523 4651,9376 8562,9378 1879,8975 8726,966 5963,9792 1462,3314 6185,830 8409,2189 2387,7275 4715,6422 260,574 8592,6365 7947,6289 6730,4965 3170,6145 6440,9925 5290,2050 4703,2656 8810,1691 8009,1414 439,130 2655,4031 9066,8308 2132,6589 3396,6582 9060,8907 3446,4554 1136,7256 2036,8931 9555,536 9720,3593 9307,8386 9476,4515 51,1516 3573,8613 5889,1589 8653,581 7210,8158 6598,5394 949,5766 4106,9798 3358,4660 9962,8933 2862,3896 2415,4549 1421,1993 1137,181 9451,3282 " fill="none" stroke="#a3917b" stroke-width="4" opacity="0.6" transform="rotate(311.35135135135135 5000 5000)"/>
  <polyline points="4840,2738 2927,3469 4999,561 4832,1232 4337,2777 1217,5983 3989,6115 1169,9682 5595,7478 6046,6903 313,4318 3577,5646 9298,3835 883,8105 4059,1179 9656,7875 8686,6891 3480,152 4129,5414 7737,6338 5197,9046 2317,3656 3966,9498 7281,6287 1532,4361 1209,6933 3718,4079 114,7307 2048,3431 5748,2887 4802,7382 3799,7067 3604,7014 615,8741 8442,7805 3339,3506 3933,37 7435,3629 1281,1075 5703,8815 3864,6635 1419,1488 9379,5681 3519,9874 1522,9747 2449,3234 8884,263 7586,3343 3965,3544 5835,5637 5396,9208 9858,9401 1316,4090 2186,3289 9775,4748 1048,4626 4845,9166 9003,8370 421,15 4633,9929 9471,968 9890,7141 9109,4379 14,2964 4123,8883 9562,7529 3475,1532 3331,3736 2734,5284 5760,9084 905,7745 2422,62 3027,692 5693,935 9628,3314 4871,4973 979,8542 9888,4094 3786,330 4455,3207 8746,6502 5778,5520 1105,5681 1758,8690 8244,8436 4671,8809 1066,1523 4651,9376 8562,9378 1879,8975 8726,966 5963,9792 1462,3314 6185,830 8409,2189 2387,7275 4715,6422 260,574 8592,6365 7947,6289 6730,4965 3170,6145 6440,9925 5290,2050 4703,2656 8810,1691 8009,1414 439,130 2655,4031 9066,8308 2132,6589 3396,6582 9060,8907 3446,4554 1136,7256 2036,8931 9555,536 9720,3593 9307,8386 9476,4515 51,1516 3573,8613 5889,1589 8653,581 7210,8158 6598,5394 949,5766 4106,9798 3358,4660 9962,8933 2862,3896 2415,4549 1421,1993 1137,181 9451,3282 " fill="none" stroke="#a3917b" stroke-width="4" opacity="0.6" transform="rotate(321.0810810810811 5000 5000)"/>
  <polyline points="4840,2738 2927,3469 4999,561 4832,1232 4337,2777 1217,5983 3989,6115 1169,9682 5595,7478 6046,6903 313,4318 3577,5646 9298,3835 883,8105 4059,1179 9656,7875 8686,6891 3480,152 4129,5414 7737,6338 5197,9046 2317,3656 3966,9498 7281,6287 1532,4361 1209,6933 3718,4079 114,7307 2048,3431 5748,2887 4802,7382 3799,7067 3604,7014 615,8741 8442,7805 3339,3506 3933,37 7435,3629 1281,1075 5703,8815 3864,6635 1419,1488 9379,5681 3519,9874 1522,9747 2449,3234 8884,263 7586,3343 3965,3544 5835,5637 5396,9208 9858,9401 1316,4090 2186,3289 9775,4748 1048,4626 4845,9166 9003,8370 421,15 4633,9929 9471,968 9890,7141 9109,4379 14,2964 4123,8883 9562,7529 3475,1532 3331,3736 2734,5284 5760,9084 905,7745 2422,62 3027,692 5693,935 9628,3314 4871,4973 979,8542 9888,4094 3786,330 4455,3207 8746,6502 5778,5520 1105,5681 1758,8690 8244,8436 4671,8809 1066,1523 4651,9376 8562,9378 1879,8975 8726,966 5963,9792 1462,3314 6185,830 8409,2189 2387,7275 4715,6422 260,574 8592,6365 7947,6289 6730,4965 3170,6145 6440,9925 5290,2050 4703,2656 8810,1691 8009,1414 439,130 2655,4031 9066,8308 2132,6589 3396,6582 9060,8907 3446,4554 1136,7256 2036,8931 9555,536 9720,3593 9307,8386 9476,4515 51,1516 3573,8613 5889,1589 8653,581 7210,8158 6598,5394 949,5766 4106,9798 3358,4660 9962,8933 2862,3896 2415,4549 1421,1993 1137,181 9451,3282 " fill="none" stroke="#a3917b" stroke-width="4" opacity="0.6" transform="rotate(330.81081081081084 5000 5000)"/>
  <polyline points="4840,2738 2927,3469 4999,561 4832,1232 4337,2777 1217,5983 3989,6115 1169,9682 5595,7478 6046,6903 313,4318 3577,5646 9298,3835 883,8105 4059,1179 9656,7875 8686,6891 3480,152 4129,5414 7737,6338 5197,9046 2317,3656 3966,9498 7281,6287 1532,4361 1209,6933 3718,4079 114,7307 2048,3431 5748,2887 4802,7382 3799,7067 3604,7014 615,8741 8442,7805 3339,3506 3933,37 7435,3629 1281,1075 5703,8815 3864,6635 1419,1488 9379,5681 3519,9874 1522,9747 2449,3234 8884,263 7586,3343 3965,3544 5835,5637 5396,9208 9858,9401 1316,4090 2186,3289 9775,4748 1048,4626 4845,9166 9003,8370 421,15 4633,9929 9471,968 9890,7141 9109,4379 14,2964 4123,8883 9562,7529 3475,1532 3331,3736 2734,5284 5760,9084 905,7745 2422,62 3027,692 5693,935 9628,3314 4871,4973 979,8542 9888,4094 3786,330 4455,3207 8746,6502 5778,5520 1105,5681 1758,8690 8244,8436 4671,8809 1066,1523 4651,9376 8562,9378 1879,8975 8726,966 5963,9792 1462,3314 6185,830 8409,2189 2387,7275 4715,6422 260,574 8592,6365 7947,6289 6730,4965 3170,6145 6440,9925 5290,2050 4703,2656 8810,1691 8009,1414 439,130 2655,4031 9066,8308 2132,6589 3396,6582 9060,8907 3446,4554 1136,7256 2036,8931 9555,536 9720,3593 9307,8386 9476,4515 51,1516 3573,8613 5889,1589 8653,581 7210,8158 6598,5394 949,5766 4106,9798 3358,4660 9962,8933 2862,3896 2415,4549 1421,1993 1137,181 9451,3282 " fill="none" stroke="#a3917b" stroke-width="4" opacity="0.6" transform="rotate(340.5405405405405 5000 5000)"/>
  <polyline points="4840,2738 2927,3469 4999,561 4832,1232 4337,2777 1217,5983 3989,6115 1169,9682 5595,7478 6046,6903 313,4318 3577,5646 9298,3835 883,8105 4059,1179 9656,7875 8686,6891 3480,152 4129,5414 7737,6338 5197,9046 2317,3656 3966,9498 7281,6287 1532,4361 1209,6933 3718,4079 114,7307 2048,3431 5748,2887 4802,7382 3799,7067 3604,7014 615,8741 8442,7805 3339,3506 3933,37 7435,3629 1281,1075 5703,8815 3864,6635 1419,1488 9379,5681 3519,9874 1522,9747 2449,3234 8884,263 7586,3343 3965,3544 5835,5637 5396,9208 9858,9401 1316,4090 2186,3289 9775,4748 1048,4626 4845,9166 9003,8370 421,15 4633,9929 9471,968 9890,7141 9109,4379 14,2964 4123,8883 9562,7529 3475,1532 3331,3736 2734,5284 5760,9084 905,7745 2422,62 3027,692 5693,935 9628,3314 4871,4973 979,8542 9888,4094 3786,330 4455,3207 8746,6502 5778,5520 1105,5681 1758,8690 8244,8436 4671,8809 1066,1523 4651,9376 8562,9378 1879,8975 8726,966 5963,9792 1462,3314 6185,830 8409,2189 2387,7275 4715,6422 260,574 8592,6365 7947,6289 6730,4965 3170,6145 6440,9925 5290,2050 4703,2656 8810,1691 8009,1414 439,130 2655,4031 9066,8308 2132,6589 3396,6582 9060,8907 3446,4554 1136,7256 2036,8931 9555,536 9720,3593 9307,8386 9476,4515 51,1516 3573,8613 5889,1589 8653,581 7210,8158 6598,5394 949,5766 4106,9798 3358,4660 9962,8933 2862,3896 2415,4549 1421,1993 1137,181 9451,3282 " fill="none" stroke="#a3917b" stroke-width="4" opacity="0.6" transform="rotate(350.27027027027026 5000 5000)"/>
  <polyline points="4840,2738 2927,3469 4999,561 4832,1232 4337,2777 1217,5983 3989,6115 1169,9682 5595,7478 6046,6903 313,4318 3577,5646 9298,3835 883,8105 4059,1179 9656,7875 8686,6891 3480,152 4129,5414 7737,6338 5197,9046 2317,3656 3966,9498 7281,6287 1532,4361 1209,6933 3718,4079 114,7307 2048,3431 5748,2887 4802,7382 3799,7067 3604,7014 615,8741 8442,7805 3339,3506 3933,37 7435,3629 1281,1075 5703,8815 3864,6635 1419,1488 9379,5681 3519,9874 1522,9747 2449,3234 8884,263 7586,3343 3965,3544 5835,5637 5396,9208 9858,9401 1316,4090 2186,3289 9775,4748 1048,4626 4845,9166 9003,8370 421,15 4633,9929 9471,968 9890,7141 9109,4379 14,2964 4123,8883 9562,7529 3475,1532 3331,3736 2734,5284 5760,9084 905,7745 2422,62 3027,692 5693,935 9628,3314 4871,4973 979,8542 9888,4094 3786,330 4455,3207 8746,6502 5778,5520 1105,5681 1758,8690 8244,8436 4671,8809 1066,1523 4651,9376 8562,9378 1879,8975 8726,966 5963,9792 1462,3314 6185,830 8409,2189 2387,7275 4715,6422 260,574 8592,6365 7947,6289 6730,4965 3170,6145 6440,9925 5290,2050 4703,2656 8810,1691 8009,1414 439,130 2655,4031 9066,8308 2132,6589 3396,6582 9060,8907 3446,4554 1136,7256 2036,8931 9555,536 9720,3593 9307,8386 9476,4515 51,1516 3573,8613 5889,1589 8653,581 7210,8158 6598,5394 949,5766 4106,9798 3358,4660 9962,8933 2862,3896 2415,4549 1421,1993 1137,181 9451,3282 " fill="none" stroke="#a3917b" stroke-width="4" opacity="0.6" transform="rotate(360 5000 5000)"/>
</svg>
